<svg width="73" height="71" viewBox="0 0 73 71" fill="none" xmlns="http://www.w3.org/2000/svg">
<g opacity="0.78" filter="url(#filter0_d_1_390)">
<mask id="mask0_1_390" style="mask-type:alpha" maskUnits="userSpaceOnUse" x="4" y="0" width="65" height="63">
<path d="M49.9135 62.497C50.4286 62.6927 50.9797 62.7831 51.5322 62.7624C52.0848 62.7417 52.6271 62.6104 53.1254 62.3767L66.4557 56.1267C67.1422 55.8046 67.7215 55.3002 68.1269 54.6715C68.5323 54.0429 68.7473 53.3154 68.7472 52.573V10.1931C68.7473 9.45065 68.5323 8.72327 68.1269 8.09463C67.7215 7.46599 67.1422 6.96164 66.4557 6.63958L53.1256 0.389333C52.3724 0.0361606 51.5251 -0.0801242 50.7011 0.0565747C49.877 0.193274 49.117 0.576195 48.5261 1.15234L23.0068 23.8383L11.8907 15.6165C11.3893 15.2456 10.7705 15.0575 10.1416 15.0847C9.51268 15.112 8.91342 15.3529 8.44777 15.7657L4.88267 18.9258C3.70708 19.9677 3.70581 21.7698 4.87962 22.8133L14.5197 31.383L4.87962 39.9525C3.70581 40.9963 3.70708 42.7981 4.88267 43.8402L8.44777 47.0001C8.91339 47.4129 9.51264 47.6539 10.1415 47.6812C10.7704 47.7085 11.3893 47.5204 11.8907 47.1495L23.0068 38.9275L48.5261 61.6135C48.9207 61.9985 49.3931 62.2994 49.9135 62.497ZM52.5703 17.0609L33.2069 31.383L52.5703 45.7049V17.0609Z" fill="white"/>
</mask>
<g mask="url(#mask0_1_390)">
<path d="M66.4953 6.64928L53.1545 0.390373C52.4011 0.036915 51.5535 -0.0796175 50.7291 0.0569015C49.9048 0.193421 49.1443 0.576241 48.553 1.15239L4.8801 39.9525C3.70553 40.9963 3.70705 42.7982 4.88315 43.8403L8.45053 47.0002C8.91657 47.4131 9.51619 47.654 10.1455 47.6813C10.7747 47.7086 11.3939 47.5205 11.8958 47.1496L64.4879 8.27301C66.2523 6.96893 68.7865 8.19508 68.7865 10.353V10.202C68.7865 9.45976 68.5715 8.73254 68.1661 8.10404C67.7608 7.47554 67.1817 6.97129 66.4953 6.64928Z" fill="#0065A9"/>
<path d="M66.4953 56.1159L53.1545 62.3749C52.4011 62.7282 51.5535 62.8447 50.7292 62.7082C49.9048 62.5717 49.1443 62.1889 48.553 61.6128L4.8801 22.8127C3.70553 21.7691 3.70705 19.967 4.88315 18.9252L8.45053 15.7651C8.9166 15.3522 9.51624 15.1113 10.1455 15.084C10.7748 15.0568 11.394 15.2449 11.8958 15.6159L64.4879 54.4922C66.2523 55.7963 68.7865 54.5701 68.7865 52.412V52.5632C68.7865 53.3055 68.5714 54.0327 68.1661 54.6612C67.7608 55.2897 67.1816 55.7939 66.4953 56.1159Z" fill="#007ACC"/>
<path d="M53.1126 62.3798C52.359 62.733 51.5114 62.8493 50.6869 62.7127C49.8625 62.5761 49.102 62.1932 48.5106 61.617C50.0038 63.0718 52.5573 62.0413 52.5573 59.9834V2.78904C52.5573 0.731112 50.0038 -0.299339 48.5106 1.15566C49.102 0.57947 49.8624 0.196552 50.6869 0.059863C51.5113 -0.0768265 52.359 0.039466 53.1126 0.392659L66.4511 6.64291C67.1379 6.96474 67.7175 7.46901 68.1231 8.09767C68.5287 8.72634 68.7439 9.45383 68.7439 10.1964V52.5765C68.7439 54.0919 67.8527 55.4734 66.4511 56.13L53.1126 62.38V62.3798Z" fill="#1F9CF0"/>
<path d="M49.9135 62.4964C50.4287 62.6921 50.9797 62.7824 51.5322 62.7618C52.0848 62.7411 52.6271 62.6098 53.1254 62.3762L66.4554 56.1259C67.142 55.8039 67.7214 55.2996 68.1268 54.6709C68.5322 54.0423 68.7473 53.3149 68.7472 52.5724V10.1925C68.7473 9.45009 68.5323 8.72271 68.1269 8.09407C67.7215 7.46543 67.1422 6.96107 66.4557 6.63902L53.1251 0.388521C52.3719 0.0354046 51.5247 -0.0808494 50.7007 0.0558482C49.8767 0.192546 49.1167 0.575435 48.5259 1.15152L23.0068 23.8378L11.8907 15.6159C11.3893 15.2451 10.7705 15.0569 10.1416 15.0842C9.51268 15.1114 8.91342 15.3523 8.44777 15.7651L4.88267 18.9253C3.70708 19.9671 3.70581 21.7692 4.87962 22.8128L14.5197 31.3825L4.87962 39.9519C3.70581 40.9957 3.70708 42.7976 4.88267 43.8397L8.44777 46.9995C8.91339 47.4124 9.51264 47.6533 10.1415 47.6806C10.7704 47.7079 11.3893 47.5198 11.8907 47.149L23.0068 38.9269L48.5259 61.6129C48.9205 61.998 49.393 62.2989 49.9135 62.4964ZM52.5703 17.0601L33.2069 31.3825L52.5703 45.7044V17.0603V17.0601Z" fill="url(#paint0_linear_1_390)" fill-opacity="0.25"/>
</g>
</g>
<defs>
<filter id="filter0_d_1_390" x="0" y="0" width="73" height="70.8414" filterUnits="userSpaceOnUse" color-interpolation-filters="sRGB">
<feFlood flood-opacity="0" result="BackgroundImageFix"/>
<feColorMatrix in="SourceAlpha" type="matrix" values="0 0 0 0 0 0 0 0 0 0 0 0 0 0 0 0 0 0 127 0" result="hardAlpha"/>
<feOffset dy="4"/>
<feGaussianBlur stdDeviation="2"/>
<feComposite in2="hardAlpha" operator="out"/>
<feColorMatrix type="matrix" values="0 0 0 0 0 0 0 0 0 0 0 0 0 0 0 0 0 0 0.25 0"/>
<feBlend mode="normal" in2="BackgroundImageFix" result="effect1_dropShadow_1_390"/>
<feBlend mode="normal" in="SourceGraphic" in2="effect1_dropShadow_1_390" result="shape"/>
</filter>
<linearGradient id="paint0_linear_1_390" x1="36.3737" y1="0.00012207" x2="36.3737" y2="62.7647" gradientUnits="userSpaceOnUse">
<stop stop-color="white"/>
<stop offset="1" stop-color="white" stop-opacity="0"/>
</linearGradient>
</defs>
</svg>
